<mxfile host="app.diagrams.net" modified="2023-03-17T05:41:37.853Z" agent="5.0 (Windows NT 10.0; Win64; x64) AppleWebKit/537.36 (KHTML, like Gecko) Chrome/111.0.0.0 Safari/537.36" etag="HzLoiB4EX6n7bj-Adta9" version="21.0.6" type="github">
  <diagram name="第 1 页" id="M36WyEC-G-t3JZa7LGa_">
    <mxGraphModel dx="2514" dy="833" grid="1" gridSize="10" guides="1" tooltips="1" connect="1" arrows="1" fold="1" page="1" pageScale="1" pageWidth="827" pageHeight="1169" math="1" shadow="0">
      <root>
        <mxCell id="0" />
        <mxCell id="1" parent="0" />
        <mxCell id="yb0PtigiAA89O74xdYbf-16" value="&lt;font face=&quot;Times New Roman&quot;&gt;&lt;span style=&quot;font-size: 15px;&quot;&gt;$$\mathbf{Q}$$&lt;/span&gt;&lt;/font&gt;" style="text;html=1;align=center;verticalAlign=middle;resizable=1;points=[];autosize=1;strokeColor=none;fillColor=none;movable=1;rotatable=1;deletable=1;editable=1;locked=0;connectable=1;" vertex="1" parent="1">
          <mxGeometry x="-6" y="306" width="130" height="30" as="geometry" />
        </mxCell>
        <mxCell id="JCxbR3vqVqJVynUhY-H6-89" value="&lt;font face=&quot;Times New Roman&quot; style=&quot;font-size: 15px;&quot;&gt;(a) pre-merge self-attention&lt;/font&gt;" style="text;html=1;align=center;verticalAlign=middle;resizable=1;points=[];autosize=1;strokeColor=none;fillColor=none;movable=1;rotatable=1;deletable=1;editable=1;locked=0;connectable=1;" parent="1" vertex="1">
          <mxGeometry x="3" y="462" width="190" height="30" as="geometry" />
        </mxCell>
        <mxCell id="JCxbR3vqVqJVynUhY-H6-95" value="" style="endArrow=none;html=1;rounded=0;entryX=0.315;entryY=0.001;entryDx=0;entryDy=0;entryPerimeter=0;exitX=0.316;exitY=0.998;exitDx=0;exitDy=0;exitPerimeter=0;dashed=1;dashPattern=8 8;movable=1;resizable=1;rotatable=1;deletable=1;editable=1;locked=0;connectable=1;" parent="1" edge="1">
          <mxGeometry width="50" height="50" relative="1" as="geometry">
            <mxPoint x="232.16000000000008" y="459.1" as="sourcePoint" />
            <mxPoint x="231.4000000000001" y="10.449999999999989" as="targetPoint" />
          </mxGeometry>
        </mxCell>
        <mxCell id="JCxbR3vqVqJVynUhY-H6-96" value="" style="endArrow=none;html=1;rounded=0;entryX=0.315;entryY=0.001;entryDx=0;entryDy=0;entryPerimeter=0;exitX=0.316;exitY=0.998;exitDx=0;exitDy=0;exitPerimeter=0;dashed=1;dashPattern=8 8;movable=1;resizable=1;rotatable=1;deletable=1;editable=1;locked=0;connectable=1;" parent="1" edge="1">
          <mxGeometry width="50" height="50" relative="1" as="geometry">
            <mxPoint x="471.7600000000001" y="459.1" as="sourcePoint" />
            <mxPoint x="471.0000000000001" y="10.449999999999989" as="targetPoint" />
          </mxGeometry>
        </mxCell>
        <mxCell id="JCxbR3vqVqJVynUhY-H6-97" value="&lt;font face=&quot;Times New Roman&quot; style=&quot;font-size: 15px;&quot;&gt;(b) cross-merge self-attention&lt;/font&gt;" style="text;html=1;align=center;verticalAlign=middle;resizable=1;points=[];autosize=1;strokeColor=none;fillColor=none;movable=1;rotatable=1;deletable=1;editable=1;locked=0;connectable=1;" parent="1" vertex="1">
          <mxGeometry x="262" y="463" width="200" height="30" as="geometry" />
        </mxCell>
        <mxCell id="JCxbR3vqVqJVynUhY-H6-98" value="&lt;font face=&quot;Times New Roman&quot; style=&quot;font-size: 15px;&quot;&gt;(c) post-merge self-attention&lt;/font&gt;" style="text;html=1;align=center;verticalAlign=middle;resizable=1;points=[];autosize=1;strokeColor=none;fillColor=none;movable=1;rotatable=1;deletable=1;editable=1;locked=0;connectable=1;" parent="1" vertex="1">
          <mxGeometry x="544" y="463" width="190" height="30" as="geometry" />
        </mxCell>
        <mxCell id="yb0PtigiAA89O74xdYbf-1" value="&lt;font face=&quot;Times New Roman&quot;&gt;&lt;span style=&quot;font-size: 15px;&quot;&gt;$$\mathcal{A}$$&lt;/span&gt;&lt;/font&gt;" style="text;html=1;align=center;verticalAlign=middle;resizable=1;points=[];autosize=1;strokeColor=none;fillColor=none;movable=1;rotatable=1;deletable=1;editable=1;locked=0;connectable=1;" vertex="1" parent="1">
          <mxGeometry x="20" y="210" width="130" height="30" as="geometry" />
        </mxCell>
        <mxCell id="JCxbR3vqVqJVynUhY-H6-2" style="edgeStyle=orthogonalEdgeStyle;rounded=0;orthogonalLoop=1;jettySize=auto;html=1;movable=1;resizable=1;rotatable=1;deletable=1;editable=1;locked=0;connectable=1;" parent="1" edge="1">
          <mxGeometry relative="1" as="geometry">
            <mxPoint x="90" y="369" as="targetPoint" />
            <mxPoint x="90" y="419" as="sourcePoint" />
          </mxGeometry>
        </mxCell>
        <mxCell id="JCxbR3vqVqJVynUhY-H6-3" style="edgeStyle=orthogonalEdgeStyle;rounded=0;orthogonalLoop=1;jettySize=auto;html=1;movable=1;resizable=1;rotatable=1;deletable=1;editable=1;locked=0;connectable=1;" parent="1" target="JCxbR3vqVqJVynUhY-H6-4" edge="1">
          <mxGeometry relative="1" as="geometry">
            <mxPoint x="40" y="417" as="sourcePoint" />
          </mxGeometry>
        </mxCell>
        <mxCell id="JCxbR3vqVqJVynUhY-H6-4" value="$$W_Q$$" style="rounded=0;whiteSpace=wrap;html=1;fillColor=#CCCCCC;movable=1;resizable=1;rotatable=1;deletable=1;editable=1;locked=0;connectable=1;" parent="1" vertex="1">
          <mxGeometry x="20" y="339" width="40" height="30" as="geometry" />
        </mxCell>
        <mxCell id="JCxbR3vqVqJVynUhY-H6-5" value="$$W_K$$" style="rounded=0;whiteSpace=wrap;html=1;fillColor=#CCCCCC;movable=1;resizable=1;rotatable=1;deletable=1;editable=1;locked=0;connectable=1;" parent="1" vertex="1">
          <mxGeometry x="70" y="339" width="40" height="30" as="geometry" />
        </mxCell>
        <mxCell id="JCxbR3vqVqJVynUhY-H6-6" value="$$W_V$$" style="rounded=0;whiteSpace=wrap;html=1;fillColor=#CCCCCC;movable=1;resizable=1;rotatable=1;deletable=1;editable=1;locked=0;connectable=1;" parent="1" vertex="1">
          <mxGeometry x="120" y="339" width="40" height="30" as="geometry" />
        </mxCell>
        <mxCell id="JCxbR3vqVqJVynUhY-H6-7" style="edgeStyle=orthogonalEdgeStyle;rounded=0;orthogonalLoop=1;jettySize=auto;html=1;movable=1;resizable=1;rotatable=1;deletable=1;editable=1;locked=0;connectable=1;" parent="1" source="JCxbR3vqVqJVynUhY-H6-8" edge="1">
          <mxGeometry relative="1" as="geometry">
            <mxPoint x="65" y="260" as="targetPoint" />
          </mxGeometry>
        </mxCell>
        <mxCell id="JCxbR3vqVqJVynUhY-H6-8" value="&lt;font style=&quot;font-size: 15px;&quot;&gt;$$\times$$&lt;/font&gt;" style="ellipse;whiteSpace=wrap;html=1;aspect=fixed;movable=1;resizable=1;rotatable=1;deletable=1;editable=1;locked=0;connectable=1;" parent="1" vertex="1">
          <mxGeometry x="55" y="290" width="20" height="20" as="geometry" />
        </mxCell>
        <mxCell id="JCxbR3vqVqJVynUhY-H6-9" style="edgeStyle=orthogonalEdgeStyle;rounded=0;orthogonalLoop=1;jettySize=auto;html=1;entryX=0;entryY=0.5;entryDx=0;entryDy=0;movable=1;resizable=1;rotatable=1;deletable=1;editable=1;locked=0;connectable=1;" parent="1" source="JCxbR3vqVqJVynUhY-H6-4" target="JCxbR3vqVqJVynUhY-H6-8" edge="1">
          <mxGeometry relative="1" as="geometry">
            <Array as="points">
              <mxPoint x="40" y="300" />
            </Array>
          </mxGeometry>
        </mxCell>
        <mxCell id="JCxbR3vqVqJVynUhY-H6-10" style="edgeStyle=orthogonalEdgeStyle;rounded=0;orthogonalLoop=1;jettySize=auto;html=1;entryX=1;entryY=0.5;entryDx=0;entryDy=0;movable=1;resizable=1;rotatable=1;deletable=1;editable=1;locked=0;connectable=1;" parent="1" source="JCxbR3vqVqJVynUhY-H6-5" target="JCxbR3vqVqJVynUhY-H6-8" edge="1">
          <mxGeometry relative="1" as="geometry">
            <Array as="points">
              <mxPoint x="90" y="300" />
            </Array>
          </mxGeometry>
        </mxCell>
        <mxCell id="JCxbR3vqVqJVynUhY-H6-11" value="$$softmax$$" style="rounded=0;whiteSpace=wrap;html=1;movable=1;resizable=1;rotatable=1;deletable=1;editable=1;locked=0;connectable=1;" parent="1" vertex="1">
          <mxGeometry x="35" y="240" width="60" height="20" as="geometry" />
        </mxCell>
        <mxCell id="JCxbR3vqVqJVynUhY-H6-12" value="&lt;font style=&quot;font-size: 15px;&quot;&gt;$$\times$$&lt;/font&gt;" style="ellipse;whiteSpace=wrap;html=1;aspect=fixed;movable=1;resizable=1;rotatable=1;deletable=1;editable=1;locked=0;connectable=1;" parent="1" vertex="1">
          <mxGeometry x="94" y="200" width="20" height="20" as="geometry" />
        </mxCell>
        <mxCell id="JCxbR3vqVqJVynUhY-H6-13" style="edgeStyle=orthogonalEdgeStyle;rounded=0;orthogonalLoop=1;jettySize=auto;html=1;entryX=1;entryY=0.5;entryDx=0;entryDy=0;movable=1;resizable=1;rotatable=1;deletable=1;editable=1;locked=0;connectable=1;" parent="1" source="JCxbR3vqVqJVynUhY-H6-6" target="JCxbR3vqVqJVynUhY-H6-12" edge="1">
          <mxGeometry relative="1" as="geometry">
            <Array as="points">
              <mxPoint x="140" y="210" />
            </Array>
          </mxGeometry>
        </mxCell>
        <mxCell id="JCxbR3vqVqJVynUhY-H6-14" style="edgeStyle=orthogonalEdgeStyle;rounded=0;orthogonalLoop=1;jettySize=auto;html=1;entryX=0;entryY=0.5;entryDx=0;entryDy=0;movable=1;resizable=1;rotatable=1;deletable=1;editable=1;locked=0;connectable=1;" parent="1" source="JCxbR3vqVqJVynUhY-H6-11" target="JCxbR3vqVqJVynUhY-H6-12" edge="1">
          <mxGeometry relative="1" as="geometry">
            <Array as="points">
              <mxPoint x="65" y="210" />
            </Array>
          </mxGeometry>
        </mxCell>
        <mxCell id="JCxbR3vqVqJVynUhY-H6-15" style="edgeStyle=orthogonalEdgeStyle;rounded=0;orthogonalLoop=1;jettySize=auto;html=1;movable=1;resizable=1;rotatable=1;deletable=1;editable=1;locked=0;connectable=1;" parent="1" source="JCxbR3vqVqJVynUhY-H6-16" edge="1">
          <mxGeometry relative="1" as="geometry">
            <mxPoint x="105" y="50" as="targetPoint" />
            <Array as="points">
              <mxPoint x="105" y="50" />
              <mxPoint x="105" y="50" />
            </Array>
          </mxGeometry>
        </mxCell>
        <mxCell id="JCxbR3vqVqJVynUhY-H6-16" value="$$FFNet$$" style="rounded=0;whiteSpace=wrap;html=1;fillColor=#CCCCCC;movable=1;resizable=1;rotatable=1;deletable=1;editable=1;locked=0;connectable=1;" parent="1" vertex="1">
          <mxGeometry x="78.5" y="110" width="51" height="20" as="geometry" />
        </mxCell>
        <mxCell id="JCxbR3vqVqJVynUhY-H6-17" value="&lt;font style=&quot;font-size: 15px;&quot;&gt;$$X^{pe,\ell}+X^{se,\ell}$$&lt;/font&gt;" style="rounded=0;whiteSpace=wrap;html=1;dashed=1;movable=1;resizable=1;rotatable=1;deletable=1;editable=1;locked=0;connectable=1;" parent="1" vertex="1">
          <mxGeometry y="417" width="116" height="23" as="geometry" />
        </mxCell>
        <mxCell id="JCxbR3vqVqJVynUhY-H6-18" style="edgeStyle=orthogonalEdgeStyle;rounded=0;orthogonalLoop=1;jettySize=auto;html=1;entryX=0.5;entryY=1;entryDx=0;entryDy=0;movable=1;resizable=1;rotatable=1;deletable=1;editable=1;locked=0;connectable=1;" parent="1" source="JCxbR3vqVqJVynUhY-H6-19" target="JCxbR3vqVqJVynUhY-H6-6" edge="1">
          <mxGeometry relative="1" as="geometry" />
        </mxCell>
        <mxCell id="JCxbR3vqVqJVynUhY-H6-19" value="&lt;font style=&quot;font-size: 15px;&quot;&gt;$$X^{\ell}$$&lt;/font&gt;" style="rounded=0;whiteSpace=wrap;html=1;dashed=1;movable=1;resizable=1;rotatable=1;deletable=1;editable=1;locked=0;connectable=1;" parent="1" vertex="1">
          <mxGeometry x="120" y="417" width="40" height="23" as="geometry" />
        </mxCell>
        <mxCell id="JCxbR3vqVqJVynUhY-H6-20" style="edgeStyle=orthogonalEdgeStyle;rounded=0;orthogonalLoop=1;jettySize=auto;html=1;entryX=0.5;entryY=1;entryDx=0;entryDy=0;movable=1;resizable=1;rotatable=1;deletable=1;editable=1;locked=0;connectable=1;" parent="1" source="JCxbR3vqVqJVynUhY-H6-21" target="JCxbR3vqVqJVynUhY-H6-16" edge="1">
          <mxGeometry relative="1" as="geometry" />
        </mxCell>
        <mxCell id="JCxbR3vqVqJVynUhY-H6-21" value="&lt;font style=&quot;font-size: 15px;&quot;&gt;$$+$$&lt;/font&gt;" style="ellipse;whiteSpace=wrap;html=1;aspect=fixed;movable=1;resizable=1;rotatable=1;deletable=1;editable=1;locked=0;connectable=1;" parent="1" vertex="1">
          <mxGeometry x="94" y="160" width="20" height="20" as="geometry" />
        </mxCell>
        <mxCell id="JCxbR3vqVqJVynUhY-H6-22" style="edgeStyle=orthogonalEdgeStyle;rounded=0;orthogonalLoop=1;jettySize=auto;html=1;entryX=0.5;entryY=1;entryDx=0;entryDy=0;movable=1;resizable=1;rotatable=1;deletable=1;editable=1;locked=0;connectable=1;" parent="1" source="JCxbR3vqVqJVynUhY-H6-12" target="JCxbR3vqVqJVynUhY-H6-21" edge="1">
          <mxGeometry relative="1" as="geometry" />
        </mxCell>
        <mxCell id="JCxbR3vqVqJVynUhY-H6-23" value="" style="endArrow=classic;html=1;rounded=0;entryX=1;entryY=0.5;entryDx=0;entryDy=0;movable=1;resizable=1;rotatable=1;deletable=1;editable=1;locked=0;connectable=1;" parent="1" target="JCxbR3vqVqJVynUhY-H6-21" edge="1">
          <mxGeometry width="50" height="50" relative="1" as="geometry">
            <mxPoint x="160" y="430" as="sourcePoint" />
            <mxPoint x="125" y="170" as="targetPoint" />
            <Array as="points">
              <mxPoint x="185" y="430" />
              <mxPoint x="185" y="270" />
              <mxPoint x="185" y="170" />
            </Array>
          </mxGeometry>
        </mxCell>
        <mxCell id="JCxbR3vqVqJVynUhY-H6-24" value="" style="endArrow=classic;html=1;rounded=0;movable=1;resizable=1;rotatable=1;deletable=1;editable=1;locked=0;connectable=1;" parent="1" edge="1">
          <mxGeometry width="50" height="50" relative="1" as="geometry">
            <mxPoint x="104" y="150" as="sourcePoint" />
            <mxPoint x="105" y="90" as="targetPoint" />
            <Array as="points">
              <mxPoint x="135" y="150" />
              <mxPoint x="135" y="90" />
            </Array>
          </mxGeometry>
        </mxCell>
        <mxCell id="JCxbR3vqVqJVynUhY-H6-25" value="" style="group;movable=1;resizable=1;rotatable=1;deletable=1;editable=1;locked=0;connectable=1;" parent="1" vertex="1" connectable="0">
          <mxGeometry x="498" y="50" width="312" height="400" as="geometry" />
        </mxCell>
        <mxCell id="JCxbR3vqVqJVynUhY-H6-26" style="edgeStyle=orthogonalEdgeStyle;rounded=0;orthogonalLoop=1;jettySize=auto;html=1;movable=1;resizable=1;rotatable=1;deletable=1;editable=1;locked=0;connectable=1;" parent="JCxbR3vqVqJVynUhY-H6-25" edge="1">
          <mxGeometry relative="1" as="geometry">
            <mxPoint x="172" y="319" as="targetPoint" />
            <mxPoint x="172" y="369" as="sourcePoint" />
          </mxGeometry>
        </mxCell>
        <mxCell id="JCxbR3vqVqJVynUhY-H6-27" style="edgeStyle=orthogonalEdgeStyle;rounded=0;orthogonalLoop=1;jettySize=auto;html=1;movable=1;resizable=1;rotatable=1;deletable=1;editable=1;locked=0;connectable=1;" parent="JCxbR3vqVqJVynUhY-H6-25" edge="1">
          <mxGeometry relative="1" as="geometry">
            <mxPoint x="122" y="367" as="sourcePoint" />
            <mxPoint x="122" y="319" as="targetPoint" />
          </mxGeometry>
        </mxCell>
        <mxCell id="JCxbR3vqVqJVynUhY-H6-28" style="edgeStyle=orthogonalEdgeStyle;rounded=0;orthogonalLoop=1;jettySize=auto;html=1;entryX=0;entryY=0.5;entryDx=0;entryDy=0;movable=1;resizable=1;rotatable=1;deletable=1;editable=1;locked=0;connectable=1;" parent="JCxbR3vqVqJVynUhY-H6-25" target="JCxbR3vqVqJVynUhY-H6-33" edge="1">
          <mxGeometry relative="1" as="geometry">
            <mxPoint x="122" y="289" as="sourcePoint" />
            <Array as="points">
              <mxPoint x="122" y="250" />
            </Array>
          </mxGeometry>
        </mxCell>
        <mxCell id="JCxbR3vqVqJVynUhY-H6-29" value="$$W_{Q2}$$" style="rounded=0;whiteSpace=wrap;html=1;fillColor=#CCCCCC;movable=1;resizable=1;rotatable=1;deletable=1;editable=1;locked=0;connectable=1;" parent="JCxbR3vqVqJVynUhY-H6-25" vertex="1">
          <mxGeometry x="102" y="289" width="40" height="30" as="geometry" />
        </mxCell>
        <mxCell id="JCxbR3vqVqJVynUhY-H6-30" value="$$W_{K2}$$" style="rounded=0;whiteSpace=wrap;html=1;fillColor=#CCCCCC;movable=1;resizable=1;rotatable=1;deletable=1;editable=1;locked=0;connectable=1;" parent="JCxbR3vqVqJVynUhY-H6-25" vertex="1">
          <mxGeometry x="152" y="289" width="40" height="30" as="geometry" />
        </mxCell>
        <mxCell id="JCxbR3vqVqJVynUhY-H6-31" value="$$W_V$$" style="rounded=0;whiteSpace=wrap;html=1;fillColor=#CCCCCC;movable=1;resizable=1;rotatable=1;deletable=1;editable=1;locked=0;connectable=1;" parent="JCxbR3vqVqJVynUhY-H6-25" vertex="1">
          <mxGeometry x="202" y="289" width="40" height="30" as="geometry" />
        </mxCell>
        <mxCell id="JCxbR3vqVqJVynUhY-H6-32" style="edgeStyle=orthogonalEdgeStyle;rounded=0;orthogonalLoop=1;jettySize=auto;html=1;movable=1;resizable=1;rotatable=1;deletable=1;editable=1;locked=0;connectable=1;" parent="JCxbR3vqVqJVynUhY-H6-25" source="JCxbR3vqVqJVynUhY-H6-33" edge="1">
          <mxGeometry relative="1" as="geometry">
            <mxPoint x="147" y="210" as="targetPoint" />
          </mxGeometry>
        </mxCell>
        <mxCell id="JCxbR3vqVqJVynUhY-H6-33" value="&lt;font style=&quot;font-size: 15px;&quot;&gt;$$\times$$&lt;/font&gt;" style="ellipse;whiteSpace=wrap;html=1;aspect=fixed;movable=1;resizable=1;rotatable=1;deletable=1;editable=1;locked=0;connectable=1;" parent="JCxbR3vqVqJVynUhY-H6-25" vertex="1">
          <mxGeometry x="137" y="240" width="20" height="20" as="geometry" />
        </mxCell>
        <mxCell id="JCxbR3vqVqJVynUhY-H6-34" style="edgeStyle=orthogonalEdgeStyle;rounded=0;orthogonalLoop=1;jettySize=auto;html=1;entryX=1;entryY=0.5;entryDx=0;entryDy=0;movable=1;resizable=1;rotatable=1;deletable=1;editable=1;locked=0;connectable=1;" parent="JCxbR3vqVqJVynUhY-H6-25" source="JCxbR3vqVqJVynUhY-H6-30" target="JCxbR3vqVqJVynUhY-H6-33" edge="1">
          <mxGeometry relative="1" as="geometry">
            <Array as="points">
              <mxPoint x="172" y="250" />
            </Array>
          </mxGeometry>
        </mxCell>
        <mxCell id="JCxbR3vqVqJVynUhY-H6-35" value="$$softmax$$" style="rounded=0;whiteSpace=wrap;html=1;movable=1;resizable=1;rotatable=1;deletable=1;editable=1;locked=0;connectable=1;" parent="JCxbR3vqVqJVynUhY-H6-25" vertex="1">
          <mxGeometry x="117" y="190" width="60" height="20" as="geometry" />
        </mxCell>
        <mxCell id="JCxbR3vqVqJVynUhY-H6-36" value="&lt;font style=&quot;font-size: 15px;&quot;&gt;$$\times$$&lt;/font&gt;" style="ellipse;whiteSpace=wrap;html=1;aspect=fixed;movable=1;resizable=1;rotatable=1;deletable=1;editable=1;locked=0;connectable=1;" parent="JCxbR3vqVqJVynUhY-H6-25" vertex="1">
          <mxGeometry x="144" y="119" width="20" height="20" as="geometry" />
        </mxCell>
        <mxCell id="JCxbR3vqVqJVynUhY-H6-37" style="edgeStyle=orthogonalEdgeStyle;rounded=0;orthogonalLoop=1;jettySize=auto;html=1;entryX=1;entryY=0.5;entryDx=0;entryDy=0;movable=1;resizable=1;rotatable=1;deletable=1;editable=1;locked=0;connectable=1;" parent="JCxbR3vqVqJVynUhY-H6-25" source="JCxbR3vqVqJVynUhY-H6-31" target="JCxbR3vqVqJVynUhY-H6-36" edge="1">
          <mxGeometry relative="1" as="geometry">
            <Array as="points">
              <mxPoint x="222" y="130" />
              <mxPoint x="164" y="130" />
            </Array>
          </mxGeometry>
        </mxCell>
        <mxCell id="JCxbR3vqVqJVynUhY-H6-38" style="edgeStyle=orthogonalEdgeStyle;rounded=0;orthogonalLoop=1;jettySize=auto;html=1;movable=1;resizable=1;rotatable=1;deletable=1;editable=1;locked=0;connectable=1;" parent="JCxbR3vqVqJVynUhY-H6-25" source="JCxbR3vqVqJVynUhY-H6-39" edge="1">
          <mxGeometry relative="1" as="geometry">
            <mxPoint x="154" as="targetPoint" />
          </mxGeometry>
        </mxCell>
        <mxCell id="JCxbR3vqVqJVynUhY-H6-39" value="$$FFNet$$" style="rounded=0;whiteSpace=wrap;html=1;fillColor=#CCCCCC;movable=1;resizable=1;rotatable=1;deletable=1;editable=1;locked=0;connectable=1;" parent="JCxbR3vqVqJVynUhY-H6-25" vertex="1">
          <mxGeometry x="128.5" y="35" width="51" height="20" as="geometry" />
        </mxCell>
        <mxCell id="JCxbR3vqVqJVynUhY-H6-40" value="&lt;font style=&quot;font-size: 15px;&quot;&gt;$$X^{se,\ell}$$&lt;/font&gt;" style="rounded=0;whiteSpace=wrap;html=1;dashed=1;movable=1;resizable=1;rotatable=1;deletable=1;editable=1;locked=0;connectable=1;" parent="JCxbR3vqVqJVynUhY-H6-25" vertex="1">
          <mxGeometry x="112" y="367" width="70" height="23" as="geometry" />
        </mxCell>
        <mxCell id="JCxbR3vqVqJVynUhY-H6-41" style="edgeStyle=orthogonalEdgeStyle;rounded=0;orthogonalLoop=1;jettySize=auto;html=1;entryX=0.5;entryY=1;entryDx=0;entryDy=0;movable=1;resizable=1;rotatable=1;deletable=1;editable=1;locked=0;connectable=1;" parent="JCxbR3vqVqJVynUhY-H6-25" source="JCxbR3vqVqJVynUhY-H6-42" target="JCxbR3vqVqJVynUhY-H6-31" edge="1">
          <mxGeometry relative="1" as="geometry" />
        </mxCell>
        <mxCell id="JCxbR3vqVqJVynUhY-H6-42" value="&lt;font style=&quot;font-size: 15px;&quot;&gt;$$X^{\ell}$$&lt;/font&gt;" style="rounded=0;whiteSpace=wrap;html=1;dashed=1;movable=1;resizable=1;rotatable=1;deletable=1;editable=1;locked=0;connectable=1;" parent="JCxbR3vqVqJVynUhY-H6-25" vertex="1">
          <mxGeometry x="202" y="367" width="40" height="23" as="geometry" />
        </mxCell>
        <mxCell id="JCxbR3vqVqJVynUhY-H6-43" style="edgeStyle=orthogonalEdgeStyle;rounded=0;orthogonalLoop=1;jettySize=auto;html=1;entryX=0.5;entryY=1;entryDx=0;entryDy=0;movable=1;resizable=1;rotatable=1;deletable=1;editable=1;locked=0;connectable=1;" parent="JCxbR3vqVqJVynUhY-H6-25" source="JCxbR3vqVqJVynUhY-H6-44" target="JCxbR3vqVqJVynUhY-H6-39" edge="1">
          <mxGeometry relative="1" as="geometry" />
        </mxCell>
        <mxCell id="JCxbR3vqVqJVynUhY-H6-44" value="&lt;font style=&quot;font-size: 15px;&quot;&gt;$$+$$&lt;/font&gt;" style="ellipse;whiteSpace=wrap;html=1;aspect=fixed;movable=1;resizable=1;rotatable=1;deletable=1;editable=1;locked=0;connectable=1;" parent="JCxbR3vqVqJVynUhY-H6-25" vertex="1">
          <mxGeometry x="144" y="82" width="20" height="20" as="geometry" />
        </mxCell>
        <mxCell id="JCxbR3vqVqJVynUhY-H6-45" style="edgeStyle=orthogonalEdgeStyle;rounded=0;orthogonalLoop=1;jettySize=auto;html=1;entryX=0.5;entryY=1;entryDx=0;entryDy=0;movable=1;resizable=1;rotatable=1;deletable=1;editable=1;locked=0;connectable=1;" parent="JCxbR3vqVqJVynUhY-H6-25" source="JCxbR3vqVqJVynUhY-H6-36" target="JCxbR3vqVqJVynUhY-H6-44" edge="1">
          <mxGeometry relative="1" as="geometry" />
        </mxCell>
        <mxCell id="JCxbR3vqVqJVynUhY-H6-46" value="" style="endArrow=classic;html=1;rounded=0;exitX=1;exitY=0.5;exitDx=0;exitDy=0;entryX=1;entryY=0.5;entryDx=0;entryDy=0;movable=1;resizable=1;rotatable=1;deletable=1;editable=1;locked=0;connectable=1;" parent="JCxbR3vqVqJVynUhY-H6-25" source="JCxbR3vqVqJVynUhY-H6-42" target="JCxbR3vqVqJVynUhY-H6-44" edge="1">
          <mxGeometry width="50" height="50" relative="1" as="geometry">
            <mxPoint x="77" y="408" as="sourcePoint" />
            <mxPoint x="207" y="120" as="targetPoint" />
            <Array as="points">
              <mxPoint x="267" y="379" />
              <mxPoint x="267" y="220" />
              <mxPoint x="266" y="92" />
            </Array>
          </mxGeometry>
        </mxCell>
        <mxCell id="JCxbR3vqVqJVynUhY-H6-47" value="" style="endArrow=classic;html=1;rounded=0;movable=1;resizable=1;rotatable=1;deletable=1;editable=1;locked=0;connectable=1;" parent="JCxbR3vqVqJVynUhY-H6-25" edge="1">
          <mxGeometry width="50" height="50" relative="1" as="geometry">
            <mxPoint x="154" y="76" as="sourcePoint" />
            <mxPoint x="156" y="20" as="targetPoint" />
            <Array as="points">
              <mxPoint x="166" y="76" />
              <mxPoint x="185" y="76" />
              <mxPoint x="185" y="20" />
            </Array>
          </mxGeometry>
        </mxCell>
        <mxCell id="JCxbR3vqVqJVynUhY-H6-48" style="edgeStyle=orthogonalEdgeStyle;rounded=0;orthogonalLoop=1;jettySize=auto;html=1;movable=1;resizable=1;rotatable=1;deletable=1;editable=1;locked=0;connectable=1;" parent="JCxbR3vqVqJVynUhY-H6-25" edge="1">
          <mxGeometry relative="1" as="geometry">
            <mxPoint x="69" y="319" as="targetPoint" />
            <mxPoint x="69" y="369" as="sourcePoint" />
          </mxGeometry>
        </mxCell>
        <mxCell id="JCxbR3vqVqJVynUhY-H6-49" style="edgeStyle=orthogonalEdgeStyle;rounded=0;orthogonalLoop=1;jettySize=auto;html=1;movable=1;resizable=1;rotatable=1;deletable=1;editable=1;locked=0;connectable=1;" parent="JCxbR3vqVqJVynUhY-H6-25" edge="1">
          <mxGeometry relative="1" as="geometry">
            <mxPoint x="19" y="367" as="sourcePoint" />
            <mxPoint x="19" y="319" as="targetPoint" />
          </mxGeometry>
        </mxCell>
        <mxCell id="JCxbR3vqVqJVynUhY-H6-50" style="edgeStyle=orthogonalEdgeStyle;rounded=0;orthogonalLoop=1;jettySize=auto;html=1;entryX=0;entryY=0.5;entryDx=0;entryDy=0;movable=1;resizable=1;rotatable=1;deletable=1;editable=1;locked=0;connectable=1;" parent="JCxbR3vqVqJVynUhY-H6-25" target="JCxbR3vqVqJVynUhY-H6-54" edge="1">
          <mxGeometry relative="1" as="geometry">
            <Array as="points">
              <mxPoint x="19" y="250" />
            </Array>
            <mxPoint x="19.028571428571468" y="289" as="sourcePoint" />
          </mxGeometry>
        </mxCell>
        <mxCell id="JCxbR3vqVqJVynUhY-H6-51" value="$$W_{Q1}$$" style="rounded=0;whiteSpace=wrap;html=1;fillColor=#CCCCCC;movable=1;resizable=1;rotatable=1;deletable=1;editable=1;locked=0;connectable=1;" parent="JCxbR3vqVqJVynUhY-H6-25" vertex="1">
          <mxGeometry y="289" width="40" height="30" as="geometry" />
        </mxCell>
        <mxCell id="JCxbR3vqVqJVynUhY-H6-52" value="$$W_{K1}$$" style="rounded=0;whiteSpace=wrap;html=1;fillColor=#CCCCCC;movable=1;resizable=1;rotatable=1;deletable=1;editable=1;locked=0;connectable=1;" parent="JCxbR3vqVqJVynUhY-H6-25" vertex="1">
          <mxGeometry x="49" y="289" width="40" height="30" as="geometry" />
        </mxCell>
        <mxCell id="JCxbR3vqVqJVynUhY-H6-53" style="edgeStyle=orthogonalEdgeStyle;rounded=0;orthogonalLoop=1;jettySize=auto;html=1;movable=1;resizable=1;rotatable=1;deletable=1;editable=1;locked=0;connectable=1;" parent="JCxbR3vqVqJVynUhY-H6-25" source="JCxbR3vqVqJVynUhY-H6-54" edge="1">
          <mxGeometry relative="1" as="geometry">
            <mxPoint x="44" y="210" as="targetPoint" />
          </mxGeometry>
        </mxCell>
        <mxCell id="JCxbR3vqVqJVynUhY-H6-54" value="&lt;font style=&quot;font-size: 15px;&quot;&gt;$$\times$$&lt;/font&gt;" style="ellipse;whiteSpace=wrap;html=1;aspect=fixed;movable=1;resizable=1;rotatable=1;deletable=1;editable=1;locked=0;connectable=1;" parent="JCxbR3vqVqJVynUhY-H6-25" vertex="1">
          <mxGeometry x="34" y="240" width="20" height="20" as="geometry" />
        </mxCell>
        <mxCell id="JCxbR3vqVqJVynUhY-H6-55" style="edgeStyle=orthogonalEdgeStyle;rounded=0;orthogonalLoop=1;jettySize=auto;html=1;entryX=1;entryY=0.5;entryDx=0;entryDy=0;movable=1;resizable=1;rotatable=1;deletable=1;editable=1;locked=0;connectable=1;" parent="JCxbR3vqVqJVynUhY-H6-25" source="JCxbR3vqVqJVynUhY-H6-52" target="JCxbR3vqVqJVynUhY-H6-54" edge="1">
          <mxGeometry relative="1" as="geometry">
            <Array as="points">
              <mxPoint x="69" y="250" />
            </Array>
          </mxGeometry>
        </mxCell>
        <mxCell id="JCxbR3vqVqJVynUhY-H6-56" value="$$softmax$$" style="rounded=0;whiteSpace=wrap;html=1;movable=1;resizable=1;rotatable=1;deletable=1;editable=1;locked=0;connectable=1;" parent="JCxbR3vqVqJVynUhY-H6-25" vertex="1">
          <mxGeometry x="14" y="190" width="60" height="20" as="geometry" />
        </mxCell>
        <mxCell id="JCxbR3vqVqJVynUhY-H6-57" value="&lt;font style=&quot;font-size: 15px;&quot;&gt;$$X^{pe,\ell}$$&lt;/font&gt;" style="rounded=0;whiteSpace=wrap;html=1;dashed=1;movable=1;resizable=1;rotatable=1;deletable=1;editable=1;locked=0;connectable=1;" parent="JCxbR3vqVqJVynUhY-H6-25" vertex="1">
          <mxGeometry x="8" y="367" width="70" height="23" as="geometry" />
        </mxCell>
        <mxCell id="JCxbR3vqVqJVynUhY-H6-58" style="edgeStyle=orthogonalEdgeStyle;rounded=0;orthogonalLoop=1;jettySize=auto;html=1;entryX=0;entryY=0.5;entryDx=0;entryDy=0;movable=1;resizable=1;rotatable=1;deletable=1;editable=1;locked=0;connectable=1;" parent="JCxbR3vqVqJVynUhY-H6-25" source="JCxbR3vqVqJVynUhY-H6-59" target="JCxbR3vqVqJVynUhY-H6-36" edge="1">
          <mxGeometry relative="1" as="geometry">
            <mxPoint x="95" y="110" as="targetPoint" />
            <Array as="points">
              <mxPoint x="96" y="130" />
              <mxPoint x="144" y="130" />
            </Array>
          </mxGeometry>
        </mxCell>
        <mxCell id="JCxbR3vqVqJVynUhY-H6-59" value="&lt;font style=&quot;font-size: 15px;&quot;&gt;$$+$$&lt;/font&gt;" style="ellipse;whiteSpace=wrap;html=1;aspect=fixed;movable=1;resizable=1;rotatable=1;deletable=1;editable=1;locked=0;connectable=1;" parent="JCxbR3vqVqJVynUhY-H6-25" vertex="1">
          <mxGeometry x="85" y="150" width="20" height="20" as="geometry" />
        </mxCell>
        <mxCell id="JCxbR3vqVqJVynUhY-H6-60" style="edgeStyle=orthogonalEdgeStyle;rounded=0;orthogonalLoop=1;jettySize=auto;html=1;entryX=1;entryY=0.5;entryDx=0;entryDy=0;movable=1;resizable=1;rotatable=1;deletable=1;editable=1;locked=0;connectable=1;" parent="JCxbR3vqVqJVynUhY-H6-25" source="JCxbR3vqVqJVynUhY-H6-35" target="JCxbR3vqVqJVynUhY-H6-59" edge="1">
          <mxGeometry relative="1" as="geometry">
            <mxPoint x="106" y="160" as="targetPoint" />
            <Array as="points">
              <mxPoint x="147" y="160" />
            </Array>
          </mxGeometry>
        </mxCell>
        <mxCell id="JCxbR3vqVqJVynUhY-H6-61" style="edgeStyle=orthogonalEdgeStyle;rounded=0;orthogonalLoop=1;jettySize=auto;html=1;entryX=0;entryY=0.5;entryDx=0;entryDy=0;movable=1;resizable=1;rotatable=1;deletable=1;editable=1;locked=0;connectable=1;" parent="JCxbR3vqVqJVynUhY-H6-25" source="JCxbR3vqVqJVynUhY-H6-56" target="JCxbR3vqVqJVynUhY-H6-59" edge="1">
          <mxGeometry relative="1" as="geometry">
            <Array as="points">
              <mxPoint x="46" y="160" />
            </Array>
          </mxGeometry>
        </mxCell>
        <mxCell id="JCxbR3vqVqJVynUhY-H6-62" value="$$\beta$$" style="text;html=1;align=center;verticalAlign=middle;resizable=1;points=[];autosize=1;strokeColor=none;fillColor=none;movable=1;rotatable=1;deletable=1;editable=1;locked=0;connectable=1;" parent="JCxbR3vqVqJVynUhY-H6-25" vertex="1">
          <mxGeometry x="7" y="135" width="80" height="30" as="geometry" />
        </mxCell>
        <mxCell id="JCxbR3vqVqJVynUhY-H6-63" value="$$1-\beta$$" style="text;html=1;align=center;verticalAlign=middle;resizable=1;points=[];autosize=1;strokeColor=none;fillColor=none;movable=1;rotatable=1;deletable=1;editable=1;locked=0;connectable=1;" parent="JCxbR3vqVqJVynUhY-H6-25" vertex="1">
          <mxGeometry x="102" y="135" width="90" height="30" as="geometry" />
        </mxCell>
        <mxCell id="yb0PtigiAA89O74xdYbf-25" value="&lt;font face=&quot;Times New Roman&quot;&gt;&lt;span style=&quot;font-size: 15px;&quot;&gt;$$\mathbf{K_2}$$&lt;/span&gt;&lt;/font&gt;" style="text;html=1;align=center;verticalAlign=middle;resizable=1;points=[];autosize=1;strokeColor=none;fillColor=none;movable=1;rotatable=1;deletable=1;editable=1;locked=0;connectable=1;" vertex="1" parent="JCxbR3vqVqJVynUhY-H6-25">
          <mxGeometry x="117" y="257" width="140" height="30" as="geometry" />
        </mxCell>
        <mxCell id="yb0PtigiAA89O74xdYbf-27" value="&lt;font face=&quot;Times New Roman&quot;&gt;&lt;span style=&quot;font-size: 15px;&quot;&gt;$$\mathbf{V}$$&lt;/span&gt;&lt;/font&gt;" style="text;html=1;align=center;verticalAlign=middle;resizable=1;points=[];autosize=1;strokeColor=none;fillColor=none;movable=1;rotatable=1;deletable=1;editable=1;locked=0;connectable=1;" vertex="1" parent="JCxbR3vqVqJVynUhY-H6-25">
          <mxGeometry x="170" y="256" width="130" height="30" as="geometry" />
        </mxCell>
        <mxCell id="yb0PtigiAA89O74xdYbf-28" value="&lt;font face=&quot;Times New Roman&quot;&gt;&lt;span style=&quot;font-size: 15px;&quot;&gt;$$\mathcal{\hat{A}}$$&lt;/span&gt;&lt;/font&gt;" style="text;html=1;align=center;verticalAlign=middle;resizable=1;points=[];autosize=1;strokeColor=none;fillColor=none;movable=1;rotatable=1;deletable=1;editable=1;locked=0;connectable=1;" vertex="1" parent="JCxbR3vqVqJVynUhY-H6-25">
          <mxGeometry x="-53" y="160" width="170" height="30" as="geometry" />
        </mxCell>
        <mxCell id="yb0PtigiAA89O74xdYbf-29" value="&lt;font face=&quot;Times New Roman&quot;&gt;&lt;span style=&quot;font-size: 15px;&quot;&gt;$$\mathcal{\hat{\hat{A}}}$$&lt;/span&gt;&lt;/font&gt;" style="text;html=1;align=center;verticalAlign=middle;resizable=1;points=[];autosize=1;strokeColor=none;fillColor=none;movable=1;rotatable=1;deletable=1;editable=1;locked=0;connectable=1;" vertex="1" parent="JCxbR3vqVqJVynUhY-H6-25">
          <mxGeometry x="59" y="160" width="200" height="30" as="geometry" />
        </mxCell>
        <mxCell id="JCxbR3vqVqJVynUhY-H6-64" value="" style="group;movable=1;resizable=1;rotatable=1;deletable=1;editable=1;locked=0;connectable=1;" parent="1" vertex="1" connectable="0">
          <mxGeometry x="256" y="49.5" width="505" height="409.5" as="geometry" />
        </mxCell>
        <mxCell id="JCxbR3vqVqJVynUhY-H6-65" style="edgeStyle=orthogonalEdgeStyle;rounded=0;orthogonalLoop=1;jettySize=auto;html=1;movable=1;resizable=1;rotatable=1;deletable=1;editable=1;locked=0;connectable=1;" parent="JCxbR3vqVqJVynUhY-H6-64" edge="1">
          <mxGeometry relative="1" as="geometry">
            <mxPoint x="82" y="319" as="targetPoint" />
            <mxPoint x="82" y="369" as="sourcePoint" />
          </mxGeometry>
        </mxCell>
        <mxCell id="JCxbR3vqVqJVynUhY-H6-66" style="edgeStyle=orthogonalEdgeStyle;rounded=0;orthogonalLoop=1;jettySize=auto;html=1;movable=1;resizable=1;rotatable=1;deletable=1;editable=1;locked=0;connectable=1;" parent="JCxbR3vqVqJVynUhY-H6-64" target="JCxbR3vqVqJVynUhY-H6-67" edge="1">
          <mxGeometry relative="1" as="geometry">
            <mxPoint x="25" y="367" as="sourcePoint" />
            <Array as="points">
              <mxPoint x="20" y="367" />
            </Array>
          </mxGeometry>
        </mxCell>
        <mxCell id="JCxbR3vqVqJVynUhY-H6-67" value="$$W_Q$$" style="rounded=0;whiteSpace=wrap;html=1;fillColor=#CCCCCC;movable=1;resizable=1;rotatable=1;deletable=1;editable=1;locked=0;connectable=1;" parent="JCxbR3vqVqJVynUhY-H6-64" vertex="1">
          <mxGeometry y="289" width="40" height="30" as="geometry" />
        </mxCell>
        <mxCell id="JCxbR3vqVqJVynUhY-H6-68" style="edgeStyle=orthogonalEdgeStyle;rounded=0;orthogonalLoop=1;jettySize=auto;html=1;entryX=1;entryY=0.5;entryDx=0;entryDy=0;movable=1;resizable=1;rotatable=1;deletable=1;editable=1;locked=0;connectable=1;" parent="JCxbR3vqVqJVynUhY-H6-64" edge="1">
          <mxGeometry relative="1" as="geometry">
            <Array as="points">
              <mxPoint x="82" y="250" />
            </Array>
            <mxPoint x="81.99999999999989" y="289" as="sourcePoint" />
            <mxPoint x="61.99999999999545" y="250" as="targetPoint" />
          </mxGeometry>
        </mxCell>
        <mxCell id="JCxbR3vqVqJVynUhY-H6-69" value="$$W_K$$" style="rounded=0;whiteSpace=wrap;html=1;fillColor=#CCCCCC;movable=1;resizable=1;rotatable=1;deletable=1;editable=1;locked=0;connectable=1;" parent="JCxbR3vqVqJVynUhY-H6-64" vertex="1">
          <mxGeometry x="62" y="289" width="40" height="30" as="geometry" />
        </mxCell>
        <mxCell id="JCxbR3vqVqJVynUhY-H6-70" value="$$W_V$$" style="rounded=0;whiteSpace=wrap;html=1;fillColor=#CCCCCC;movable=1;resizable=1;rotatable=1;deletable=1;editable=1;locked=0;connectable=1;" parent="JCxbR3vqVqJVynUhY-H6-64" vertex="1">
          <mxGeometry x="115" y="289" width="40" height="30" as="geometry" />
        </mxCell>
        <mxCell id="JCxbR3vqVqJVynUhY-H6-71" value="&lt;font style=&quot;font-size: 15px;&quot;&gt;$$\times$$&lt;/font&gt;" style="ellipse;whiteSpace=wrap;html=1;aspect=fixed;movable=1;resizable=1;rotatable=1;deletable=1;editable=1;locked=0;connectable=1;" parent="JCxbR3vqVqJVynUhY-H6-64" vertex="1">
          <mxGeometry x="43" y="240" width="20" height="20" as="geometry" />
        </mxCell>
        <mxCell id="JCxbR3vqVqJVynUhY-H6-72" style="edgeStyle=orthogonalEdgeStyle;rounded=0;orthogonalLoop=1;jettySize=auto;html=1;entryX=0;entryY=0.5;entryDx=0;entryDy=0;movable=1;resizable=1;rotatable=1;deletable=1;editable=1;locked=0;connectable=1;" parent="JCxbR3vqVqJVynUhY-H6-64" source="JCxbR3vqVqJVynUhY-H6-67" target="JCxbR3vqVqJVynUhY-H6-71" edge="1">
          <mxGeometry relative="1" as="geometry">
            <Array as="points">
              <mxPoint x="23" y="250" />
            </Array>
          </mxGeometry>
        </mxCell>
        <mxCell id="JCxbR3vqVqJVynUhY-H6-73" style="edgeStyle=orthogonalEdgeStyle;rounded=0;orthogonalLoop=1;jettySize=auto;html=1;entryX=0;entryY=0.5;entryDx=0;entryDy=0;movable=1;resizable=1;rotatable=1;deletable=1;editable=1;locked=0;connectable=1;" parent="JCxbR3vqVqJVynUhY-H6-64" target="JCxbR3vqVqJVynUhY-H6-76" edge="1">
          <mxGeometry relative="1" as="geometry">
            <Array as="points">
              <mxPoint x="53" y="160" />
            </Array>
            <mxPoint x="53" y="190" as="sourcePoint" />
            <mxPoint x="81.99999999999386" y="160" as="targetPoint" />
          </mxGeometry>
        </mxCell>
        <mxCell id="JCxbR3vqVqJVynUhY-H6-74" value="$$softmax$$" style="rounded=0;whiteSpace=wrap;html=1;movable=1;resizable=1;rotatable=1;deletable=1;editable=1;locked=0;connectable=1;" parent="JCxbR3vqVqJVynUhY-H6-64" vertex="1">
          <mxGeometry x="23" y="190" width="60" height="20" as="geometry" />
        </mxCell>
        <mxCell id="JCxbR3vqVqJVynUhY-H6-75" style="edgeStyle=orthogonalEdgeStyle;rounded=0;orthogonalLoop=1;jettySize=auto;html=1;entryX=0.5;entryY=1;entryDx=0;entryDy=0;movable=1;resizable=1;rotatable=1;deletable=1;editable=1;locked=0;connectable=1;" parent="JCxbR3vqVqJVynUhY-H6-64" source="JCxbR3vqVqJVynUhY-H6-71" target="JCxbR3vqVqJVynUhY-H6-74" edge="1">
          <mxGeometry relative="1" as="geometry">
            <mxPoint x="60" y="210" as="targetPoint" />
          </mxGeometry>
        </mxCell>
        <mxCell id="JCxbR3vqVqJVynUhY-H6-76" value="&lt;font style=&quot;font-size: 15px;&quot;&gt;$$\times$$&lt;/font&gt;" style="ellipse;whiteSpace=wrap;html=1;aspect=fixed;movable=1;resizable=1;rotatable=1;deletable=1;editable=1;locked=0;connectable=1;" parent="JCxbR3vqVqJVynUhY-H6-64" vertex="1">
          <mxGeometry x="89" y="150" width="20" height="20" as="geometry" />
        </mxCell>
        <mxCell id="JCxbR3vqVqJVynUhY-H6-77" style="edgeStyle=orthogonalEdgeStyle;rounded=0;orthogonalLoop=1;jettySize=auto;html=1;entryX=1;entryY=0.5;entryDx=0;entryDy=0;movable=1;resizable=1;rotatable=1;deletable=1;editable=1;locked=0;connectable=1;" parent="JCxbR3vqVqJVynUhY-H6-64" source="JCxbR3vqVqJVynUhY-H6-70" target="JCxbR3vqVqJVynUhY-H6-76" edge="1">
          <mxGeometry relative="1" as="geometry">
            <Array as="points">
              <mxPoint x="135" y="160" />
            </Array>
          </mxGeometry>
        </mxCell>
        <mxCell id="JCxbR3vqVqJVynUhY-H6-78" style="edgeStyle=orthogonalEdgeStyle;rounded=0;orthogonalLoop=1;jettySize=auto;html=1;movable=1;resizable=1;rotatable=1;deletable=1;editable=1;locked=0;connectable=1;" parent="JCxbR3vqVqJVynUhY-H6-64" source="JCxbR3vqVqJVynUhY-H6-79" edge="1">
          <mxGeometry relative="1" as="geometry">
            <mxPoint x="100" as="targetPoint" />
            <Array as="points">
              <mxPoint x="100" />
              <mxPoint x="100" />
            </Array>
          </mxGeometry>
        </mxCell>
        <mxCell id="JCxbR3vqVqJVynUhY-H6-79" value="$$FFNet$$" style="rounded=0;whiteSpace=wrap;html=1;fillColor=#CCCCCC;movable=1;resizable=1;rotatable=1;deletable=1;editable=1;locked=0;connectable=1;" parent="JCxbR3vqVqJVynUhY-H6-64" vertex="1">
          <mxGeometry x="73.5" y="60" width="51" height="20" as="geometry" />
        </mxCell>
        <mxCell id="JCxbR3vqVqJVynUhY-H6-80" value="&lt;font style=&quot;font-size: 15px;&quot;&gt;$$X^{pe,\ell}$$&lt;/font&gt;" style="rounded=0;whiteSpace=wrap;html=1;dashed=1;movable=1;resizable=1;rotatable=1;deletable=1;editable=1;locked=0;connectable=1;" parent="JCxbR3vqVqJVynUhY-H6-64" vertex="1">
          <mxGeometry x="-5" y="367" width="49" height="23" as="geometry" />
        </mxCell>
        <mxCell id="JCxbR3vqVqJVynUhY-H6-81" style="edgeStyle=orthogonalEdgeStyle;rounded=0;orthogonalLoop=1;jettySize=auto;html=1;entryX=0.5;entryY=1;entryDx=0;entryDy=0;movable=1;resizable=1;rotatable=1;deletable=1;editable=1;locked=0;connectable=1;" parent="JCxbR3vqVqJVynUhY-H6-64" source="JCxbR3vqVqJVynUhY-H6-82" target="JCxbR3vqVqJVynUhY-H6-70" edge="1">
          <mxGeometry relative="1" as="geometry" />
        </mxCell>
        <mxCell id="JCxbR3vqVqJVynUhY-H6-82" value="&lt;font style=&quot;font-size: 15px;&quot;&gt;$$X^{\ell}$$&lt;/font&gt;" style="rounded=0;whiteSpace=wrap;html=1;dashed=1;movable=1;resizable=1;rotatable=1;deletable=1;editable=1;locked=0;connectable=1;" parent="JCxbR3vqVqJVynUhY-H6-64" vertex="1">
          <mxGeometry x="115" y="367" width="40" height="23" as="geometry" />
        </mxCell>
        <mxCell id="JCxbR3vqVqJVynUhY-H6-83" style="edgeStyle=orthogonalEdgeStyle;rounded=0;orthogonalLoop=1;jettySize=auto;html=1;entryX=0.5;entryY=1;entryDx=0;entryDy=0;movable=1;resizable=1;rotatable=1;deletable=1;editable=1;locked=0;connectable=1;" parent="JCxbR3vqVqJVynUhY-H6-64" source="JCxbR3vqVqJVynUhY-H6-84" target="JCxbR3vqVqJVynUhY-H6-79" edge="1">
          <mxGeometry relative="1" as="geometry" />
        </mxCell>
        <mxCell id="JCxbR3vqVqJVynUhY-H6-84" value="&lt;font style=&quot;font-size: 15px;&quot;&gt;$$+$$&lt;/font&gt;" style="ellipse;whiteSpace=wrap;html=1;aspect=fixed;movable=1;resizable=1;rotatable=1;deletable=1;editable=1;locked=0;connectable=1;" parent="JCxbR3vqVqJVynUhY-H6-64" vertex="1">
          <mxGeometry x="89" y="110" width="20" height="20" as="geometry" />
        </mxCell>
        <mxCell id="JCxbR3vqVqJVynUhY-H6-85" style="edgeStyle=orthogonalEdgeStyle;rounded=0;orthogonalLoop=1;jettySize=auto;html=1;entryX=0.5;entryY=1;entryDx=0;entryDy=0;movable=1;resizable=1;rotatable=1;deletable=1;editable=1;locked=0;connectable=1;" parent="JCxbR3vqVqJVynUhY-H6-64" source="JCxbR3vqVqJVynUhY-H6-76" target="JCxbR3vqVqJVynUhY-H6-84" edge="1">
          <mxGeometry relative="1" as="geometry" />
        </mxCell>
        <mxCell id="JCxbR3vqVqJVynUhY-H6-86" value="" style="endArrow=classic;html=1;rounded=0;exitX=1;exitY=0.5;exitDx=0;exitDy=0;entryX=1;entryY=0.5;entryDx=0;entryDy=0;movable=1;resizable=1;rotatable=1;deletable=1;editable=1;locked=0;connectable=1;" parent="JCxbR3vqVqJVynUhY-H6-64" source="JCxbR3vqVqJVynUhY-H6-82" target="JCxbR3vqVqJVynUhY-H6-84" edge="1">
          <mxGeometry width="50" height="50" relative="1" as="geometry">
            <mxPoint x="-10" y="408" as="sourcePoint" />
            <mxPoint x="120" y="120" as="targetPoint" />
            <Array as="points">
              <mxPoint x="180" y="378.5" />
              <mxPoint x="180" y="220" />
              <mxPoint x="180" y="120" />
            </Array>
          </mxGeometry>
        </mxCell>
        <mxCell id="JCxbR3vqVqJVynUhY-H6-87" value="" style="endArrow=classic;html=1;rounded=0;movable=1;resizable=1;rotatable=1;deletable=1;editable=1;locked=0;connectable=1;" parent="JCxbR3vqVqJVynUhY-H6-64" edge="1">
          <mxGeometry width="50" height="50" relative="1" as="geometry">
            <mxPoint x="99" y="100" as="sourcePoint" />
            <mxPoint x="100" y="40" as="targetPoint" />
            <Array as="points">
              <mxPoint x="130" y="100" />
              <mxPoint x="130" y="40" />
            </Array>
          </mxGeometry>
        </mxCell>
        <mxCell id="JCxbR3vqVqJVynUhY-H6-88" value="&lt;font style=&quot;font-size: 15px;&quot;&gt;$$X^{se,\ell}$$&lt;/font&gt;" style="rounded=0;whiteSpace=wrap;html=1;dashed=1;movable=1;resizable=1;rotatable=1;deletable=1;editable=1;locked=0;connectable=1;" parent="JCxbR3vqVqJVynUhY-H6-64" vertex="1">
          <mxGeometry x="57" y="367" width="50" height="23" as="geometry" />
        </mxCell>
        <mxCell id="yb0PtigiAA89O74xdYbf-19" value="&lt;font face=&quot;Times New Roman&quot;&gt;&lt;span style=&quot;font-size: 15px;&quot;&gt;$$\mathbf{Q}$$&lt;/span&gt;&lt;/font&gt;" style="text;html=1;align=center;verticalAlign=middle;resizable=1;points=[];autosize=1;strokeColor=none;fillColor=none;movable=1;rotatable=1;deletable=1;editable=1;locked=0;connectable=1;" vertex="1" parent="JCxbR3vqVqJVynUhY-H6-64">
          <mxGeometry x="-58" y="255.5" width="130" height="30" as="geometry" />
        </mxCell>
        <mxCell id="yb0PtigiAA89O74xdYbf-20" value="&lt;font face=&quot;Times New Roman&quot;&gt;&lt;span style=&quot;font-size: 15px;&quot;&gt;$$\mathbf{K}$$&lt;/span&gt;&lt;/font&gt;" style="text;html=1;align=center;verticalAlign=middle;resizable=1;points=[];autosize=1;strokeColor=none;fillColor=none;movable=1;rotatable=1;deletable=1;editable=1;locked=0;connectable=1;" vertex="1" parent="JCxbR3vqVqJVynUhY-H6-64">
          <mxGeometry x="29" y="255.5" width="130" height="30" as="geometry" />
        </mxCell>
        <mxCell id="yb0PtigiAA89O74xdYbf-21" value="&lt;font face=&quot;Times New Roman&quot;&gt;&lt;span style=&quot;font-size: 15px;&quot;&gt;$$\mathbf{V}$$&lt;/span&gt;&lt;/font&gt;" style="text;html=1;align=center;verticalAlign=middle;resizable=1;points=[];autosize=1;strokeColor=none;fillColor=none;movable=1;rotatable=1;deletable=1;editable=1;locked=0;connectable=1;" vertex="1" parent="JCxbR3vqVqJVynUhY-H6-64">
          <mxGeometry x="83" y="255.5" width="130" height="30" as="geometry" />
        </mxCell>
        <mxCell id="yb0PtigiAA89O74xdYbf-22" value="&lt;font face=&quot;Times New Roman&quot;&gt;&lt;span style=&quot;font-size: 15px;&quot;&gt;$$\mathcal{A}$$&lt;/span&gt;&lt;/font&gt;" style="text;html=1;align=center;verticalAlign=middle;resizable=1;points=[];autosize=1;strokeColor=none;fillColor=none;movable=1;rotatable=1;deletable=1;editable=1;locked=0;connectable=1;" vertex="1" parent="JCxbR3vqVqJVynUhY-H6-64">
          <mxGeometry x="-28" y="159.5" width="130" height="30" as="geometry" />
        </mxCell>
        <mxCell id="yb0PtigiAA89O74xdYbf-23" value="&lt;font face=&quot;Times New Roman&quot;&gt;&lt;span style=&quot;font-size: 15px;&quot;&gt;$$\mathbf{Q_1}$$&lt;/span&gt;&lt;/font&gt;" style="text;html=1;align=center;verticalAlign=middle;resizable=1;points=[];autosize=1;strokeColor=none;fillColor=none;movable=1;rotatable=1;deletable=1;editable=1;locked=0;connectable=1;" vertex="1" parent="JCxbR3vqVqJVynUhY-H6-64">
          <mxGeometry x="177" y="255.5" width="140" height="30" as="geometry" />
        </mxCell>
        <mxCell id="yb0PtigiAA89O74xdYbf-24" value="&lt;font face=&quot;Times New Roman&quot;&gt;&lt;span style=&quot;font-size: 15px;&quot;&gt;$$\mathbf{Q_2}$$&lt;/span&gt;&lt;/font&gt;" style="text;html=1;align=center;verticalAlign=middle;resizable=1;points=[];autosize=1;strokeColor=none;fillColor=none;movable=1;rotatable=1;deletable=1;editable=1;locked=0;connectable=1;" vertex="1" parent="JCxbR3vqVqJVynUhY-H6-64">
          <mxGeometry x="281" y="255.5" width="140" height="30" as="geometry" />
        </mxCell>
        <mxCell id="yb0PtigiAA89O74xdYbf-26" value="&lt;font face=&quot;Times New Roman&quot;&gt;&lt;span style=&quot;font-size: 15px;&quot;&gt;$$\mathbf{K_1}$$&lt;/span&gt;&lt;/font&gt;" style="text;html=1;align=center;verticalAlign=middle;resizable=1;points=[];autosize=1;strokeColor=none;fillColor=none;movable=1;rotatable=1;deletable=1;editable=1;locked=0;connectable=1;" vertex="1" parent="JCxbR3vqVqJVynUhY-H6-64">
          <mxGeometry x="254" y="255.5" width="140" height="30" as="geometry" />
        </mxCell>
        <mxCell id="yb0PtigiAA89O74xdYbf-30" value="&lt;font face=&quot;Times New Roman&quot;&gt;&lt;span style=&quot;font-size: 15px;&quot;&gt;$$\mathcal{A}$$&lt;/span&gt;&lt;/font&gt;" style="text;html=1;align=center;verticalAlign=middle;resizable=1;points=[];autosize=1;strokeColor=none;fillColor=none;movable=1;rotatable=1;deletable=1;editable=1;locked=0;connectable=1;" vertex="1" parent="JCxbR3vqVqJVynUhY-H6-64">
          <mxGeometry x="260" y="121.5" width="130" height="28.5" as="geometry" />
        </mxCell>
        <mxCell id="yb0PtigiAA89O74xdYbf-18" value="$$\mathbf{V}$$" style="text;html=1;align=center;verticalAlign=middle;resizable=1;points=[];autosize=1;strokeColor=none;fillColor=none;movable=1;rotatable=1;deletable=1;editable=1;locked=0;connectable=1;" vertex="1" parent="1">
          <mxGeometry x="97" y="306" width="110" height="30" as="geometry" />
        </mxCell>
        <mxCell id="yb0PtigiAA89O74xdYbf-17" value="$$\mathbf{K}$$" style="text;html=1;align=center;verticalAlign=middle;resizable=1;points=[];autosize=1;strokeColor=none;fillColor=none;movable=1;rotatable=1;deletable=1;editable=1;locked=0;connectable=1;" vertex="1" parent="1">
          <mxGeometry x="49" y="306" width="110" height="30" as="geometry" />
        </mxCell>
      </root>
    </mxGraphModel>
  </diagram>
</mxfile>
